<?xml version="1.0" encoding="UTF-8"?>
<svg xmlns="http://www.w3.org/2000/svg" version="1.1" width="512" height="512" viewBox="0 0 512 512">
  <path fill="#b8bb26"
    d="M 255.50391,0.03320312 C 225.17651,0.09814267 185.96705,5.5159571 144.86328,25.402344 114.05453,40.307908 86.70816,61.244307 64.267578,86.617188 L 85.296875,114.95898 195.14062,262.99805 87.814453,399.94727 c 7.847112,9.16462 16.415057,17.68607 25.646487,25.45703 L 282.50195,212.81445 165.75391,53.847656 c 33.58289,-14.978141 65.2874,-19.087944 89.74218,-19.164062 z m 10.32031,0.18359376 V 34.890625 172.76562 l 23.32031,31.75391 12.62695,-15.87695 V 39.439453 c 35.51376,7.441626 67.88438,23.32849 94.8711,45.53125 L 225.9668,300.91797 344.02148,459.1543 c 31.85348,-13.78487 59.79629,-34.8194 81.76368,-61.05469 L 314.45703,246.91211 422.55664,110.17383 444.25586,82.728516 C 436.09569,73.869425 427.33086,65.577041 418.00781,57.9375 385.07916,30.954905 345.3267,12.012479 301.77148,4.1152344 290.04632,1.9892713 278.04274,0.68058457 265.82422,0.21679688 Z m -46.5918,308.74218312 -13.48828,16.9629 v 145.62695 0.043 c 11.64229,2.69686 23.64938,4.43995 35.92383,5.22265 V 339.32812 l 0.0234,-0.0293 c -7.50303,-10.10076 -15.01245,-20.19749 -22.45899,-30.33985 z m -13.48828,198.02149 v 0.0391 c 0.56436,0.11277 1.13746,0.19955 1.70313,0.30859 -0.56983,-0.10995 -1.13465,-0.23391 -1.70313,-0.34765 z m 7.32617,1.36914 c 1.41174,0.2394 2.83061,0.45576 4.25,0.67187 -1.41933,-0.21628 -2.83838,-0.43228 -4.25,-0.67187 z m 10.08399,1.51953 c 1.31415,0.16909 2.64067,0.29631 3.96093,0.44531 -1.32011,-0.14911 -2.64694,-0.27611 -3.96093,-0.44531 z m 15.02343,1.45117 c 1.1647,0.0805 2.32129,0.19104 3.49024,0.25586 v -0.0195 c -1.16709,-0.0648 -2.32733,-0.15584 -3.49024,-0.23633 z" />
  <path fill="#1d2021"
    d="m 444.25586,82.728516 -21.69922,27.445314 c 34.08801,38.91989 54.76758,89.89525 54.76758,145.82617 0,54.15405 -19.3687,103.67906 -51.53906,142.09961 -21.96741,26.23532 -49.91017,47.26981 -81.76368,61.05469 -26.96734,11.67035 -56.71497,18.16992 -88.02148,18.16992 -54.36362,0 -104.05637,-19.5255 -142.53906,-51.91992 C 104.2295,417.63334 95.661573,409.1119 87.814453,399.94727 54.698651,361.27137 34.675781,311.03477 34.675781,256 c 0,-53.6491 18.988219,-102.77372 50.621094,-141.04102 L 64.267578,86.617188 C 24.31847,131.78643 0,191.08706 0,256 0,321.95266 25.069088,382.14302 66.166016,427.57227 74.1844,436.43592 82.825504,444.72245 91.998047,452.39453 136.44845,489.57365 193.64149,512 256,512 c 39.03474,0 76.0351,-8.81246 109.16992,-24.49805 31.13729,-14.73997 58.83409,-35.57237 81.5586,-60.96093 C 487.28328,381.23188 512,321.46285 512,256 512,189.21483 486.28013,128.35214 444.25586,82.728516 Z" />
</svg>